<svg xmlns="http://www.w3.org/2000/svg" viewBox="0 0 563.33 161.73"><defs><style>.cls-1{fill:#11284a;}.cls-2{fill:#00acdf;}</style></defs><g id="Layer_2" data-name="Layer 2"><g id="Layer_1-2" data-name="Layer 1"><path class="cls-1" d="M73.58,8.52A76.82,76.82,0,0,0,56.9,11.91,75.06,75.06,0,0,0,41.38,19,75.94,75.94,0,0,0,27.84,29.53,77.36,77.36,0,0,0,17,42.88c-.82,1.19-1.49,2.46-2.23,3.7-.38.62-.69,1.27-1,1.9l-1,1.92c-.59,1.31-1.22,2.62-1.77,4l-.8,2-.4,1-.35,1A77.35,77.35,0,0,0,5.57,75.28a78.39,78.39,0,0,0,.1,17.39,76.32,76.32,0,0,0,23.09,46.14c.51.53,1.07,1,1.61,1.5s1.09,1,1.65,1.47l1.71,1.4.85.7.88.66,1.77,1.32,1.83,1.25c1.2.86,2.48,1.59,3.73,2.38a81,81,0,0,0,7.86,4.06c1.34.63,2.73,1.13,4.09,1.7.7.26,1.4.49,2.09.74s1.4.5,2.11.7a78.19,78.19,0,0,0,68.24-10.58,79.21,79.21,0,0,1-68.85,12.63c-.74-.19-1.46-.41-2.19-.65l-2.17-.7c-1.42-.54-2.87-1-4.27-1.63a82.07,82.07,0,0,1-8.25-3.95c-1.31-.78-2.66-1.5-3.93-2.34l-1.93-1.24-1.87-1.32-.94-.66-.91-.7-1.81-1.4c-.6-.49-1.18-1-1.76-1.48s-1.18-1-1.73-1.51A80.54,80.54,0,0,1,.89,93.31,83.78,83.78,0,0,1,.24,74.78a82.6,82.6,0,0,1,3.6-18.26l.34-1.11.4-1.1.8-2.2c.55-1.45,1.18-2.88,1.79-4.32l1-2.11c.34-.7.66-1.41,1.05-2.09.75-1.37,1.45-2.77,2.29-4.08A84.18,84.18,0,0,1,22.9,24.63,83.31,83.31,0,0,1,37.4,12.68,82.35,82.35,0,0,1,54.3,4.31,85.28,85.28,0,0,1,72.71,0Z"></path><path class="cls-2" d="M87.36,10.7l54.32,121.88h-30.2s-21.35-24.31-52.84,0H29.56s19.14-43.64,72.35-32.22L87.36,66.3,78.34,88a69.16,69.16,0,0,0-29.82,9.21Z"></path><path class="cls-2" d="M149,32.4h18.68v51h32.63V99.79H149Z"></path><path class="cls-2" d="M215.12,48.76H194.91V32.4H254V48.76H233.8v51H215.12Z"></path><path class="cls-2" d="M262.58,32.4h18.78V99.79H262.58Z"></path><path class="cls-2" d="M293.68,32.4h19.73l16.08,26.09L345.57,32.4H365.3V99.79H346.72V61.09L329.49,87.46h-.38L312,61.28V99.79H293.68Z"></path><path class="cls-2" d="M400.54,31.92h18l28.69,67.87h-20l-4.91-12h-26l-4.81,12H371.85Zm16.37,41.3L409.4,54.06l-7.61,19.16Z"></path><path class="cls-2" d="M461.58,48.76H441.36V32.4h59.11V48.76H480.25v51H461.58Z"></path><path class="cls-2" d="M508.65,32.4h54.2V48.28H527.14V58.49h32.34V73.22H527.14V83.9h36.19V99.79H508.65Z"></path><path class="cls-1" d="M157.17,131.42H148.4V109h7.42c4.32,0,7,2.28,7,5.68a5,5,0,0,1-2.49,4.49c2.9.92,4.55,3,4.55,5.85C164.84,128.8,161.87,131.42,157.17,131.42Zm-5.91-20.1v7h4.29c2.86,0,4.33-1.33,4.33-3.54s-1.47-3.47-4.33-3.47Zm5.61,9.35h-5.61v8.4h5.61c3.2,0,5-1.6,5-4.15S160.07,120.67,156.87,120.67Z"></path><path class="cls-1" d="M174.78,109h2.86V123.5c0,3.81,2.37,5.91,6,5.91s6-2.1,6-5.91V109h2.86v14.39c0,5.27-3.61,8.43-8.84,8.43s-8.84-3.12-8.84-8.43Z"></path><path class="cls-1" d="M204.46,125.6c1.47,2.55,3.46,3.81,6,3.81S215,128,215,125.81c0-1.77-1.09-2.69-3.8-4.19l-2.49-1.32c-3.31-1.87-5.07-3.47-5.07-6.09,0-3.37,3.08-5.61,6.92-5.61a7.6,7.6,0,0,1,7.18,4.18L215.45,114a5.32,5.32,0,0,0-4.89-3c-2.3,0-4,1.19-4,3.13,0,1.63,1,2.41,3.57,3.88l2.49,1.32c3.72,2.08,5.3,3.78,5.3,6.46,0,3.61-3.12,6-7.41,6a8.82,8.82,0,0,1-8.31-5Z"></path><path class="cls-1" d="M228.61,109h2.86v22.45h-2.86Z"></path><path class="cls-1" d="M261,109v22.69h-1.24l-13.69-16.77v16.53h-2.86V108.73h1.21l13.69,16.81V109Z"></path><path class="cls-1" d="M272.75,109H287v2.35H275.6v6.9h8.73v2.35H275.6v8.5h11.78v2.35H272.75Z"></path><path class="cls-1" d="M298.14,125.6c1.47,2.55,3.46,3.81,6,3.81s4.47-1.42,4.47-3.6c0-1.77-1.09-2.69-3.79-4.19l-2.49-1.32c-3.31-1.87-5.08-3.47-5.08-6.09,0-3.37,3.09-5.61,6.93-5.61a7.6,7.6,0,0,1,7.18,4.18L309.12,114a5.3,5.3,0,0,0-4.89-3c-2.29,0-4,1.19-4,3.13,0,1.63,1,2.41,3.57,3.88l2.49,1.32c3.72,2.08,5.3,3.78,5.3,6.46,0,3.61-3.12,6-7.41,6a8.84,8.84,0,0,1-8.32-5Z"></path><path class="cls-1" d="M322.82,125.6c1.47,2.55,3.46,3.81,6,3.81s4.47-1.42,4.47-3.6c0-1.77-1.09-2.69-3.79-4.19L327,120.3c-3.31-1.87-5.08-3.47-5.08-6.09,0-3.37,3.09-5.61,6.93-5.61a7.6,7.6,0,0,1,7.18,4.18L333.8,114a5.3,5.3,0,0,0-4.89-3c-2.29,0-4,1.19-4,3.13,0,1.63,1,2.41,3.57,3.88l2.48,1.32c3.73,2.08,5.31,3.78,5.31,6.46,0,3.61-3.12,6-7.41,6a8.84,8.84,0,0,1-8.32-5Z"></path><path class="cls-1" d="M382.79,108.73v22.69h-2.86V115.54L373,125h-1l-6.89-9.45v15.88h-2.86V108.73h1.21l9,12.52,9.06-12.52Z"></path><path class="cls-1" d="M407.88,126.86H397.39l-1.89,4.56h-3l9.56-22.69h1.2l9.52,22.69h-3Zm-9.52-2.34h8.54l-4.25-10.72Z"></path><path class="cls-1" d="M431.55,108.6a9.7,9.7,0,0,1,8.95,5l-2.33,1.23a7.34,7.34,0,0,0-6.59-3.81c-4.74,0-8.05,3.67-8.05,9.22s3.31,9.21,8.05,9.21a7.34,7.34,0,0,0,6.59-3.81l2.33,1.23c-1.66,3.13-4.89,5-8.95,5-6.33.11-11.07-4.76-10.95-11.59C420.48,113.36,425.22,108.5,431.55,108.6Z"></path><path class="cls-1" d="M450.85,109h2.85v9.25h12V109h2.9v22.45h-2.9V120.57h-12v10.85h-2.85Z"></path><path class="cls-1" d="M480.38,109h2.86v22.45h-2.86Z"></path><path class="cls-1" d="M512.77,109v22.69h-1.24l-13.69-16.77v16.53H495V108.73h1.2l13.69,16.81V109Z"></path><path class="cls-1" d="M524.51,109h14.26v2.35h-11.4v6.9h8.72v2.35h-8.72v8.5h11.77v2.35H524.51Z"></path><path class="cls-1" d="M549.9,125.6c1.47,2.55,3.46,3.81,6,3.81s4.48-1.42,4.48-3.6c0-1.77-1.09-2.69-3.8-4.19l-2.48-1.32c-3.31-1.87-5.08-3.47-5.08-6.09,0-3.37,3.08-5.61,6.92-5.61a7.63,7.63,0,0,1,7.19,4.18L560.89,114a5.32,5.32,0,0,0-4.89-3c-2.3,0-4,1.19-4,3.13,0,1.63,1,2.41,3.58,3.88l2.48,1.32c3.72,2.08,5.3,3.78,5.3,6.46,0,3.61-3.12,6-7.41,6a8.82,8.82,0,0,1-8.31-5Z"></path></g></g></svg>