<?xml version="1.0" encoding="utf-8"?>
<!-- Generator: Adobe Illustrator 24.0.2, SVG Export Plug-In . SVG Version: 6.00 Build 0)  -->
<svg version="1.1" id="Layer_1" xmlns="http://www.w3.org/2000/svg" xmlns:xlink="http://www.w3.org/1999/xlink" x="0px" y="0px"
	 viewBox="0 0 563.3 161.7" style="enable-background:new 0 0 563.3 161.7;" xml:space="preserve">
<style type="text/css">
	.st0{fill:#FFFFFF;}
	.st1{fill:#00ACDF;}
</style>
<g id="Layer_2_1_">
	<g id="Layer_1-2">
		<path class="st0" d="M73.6,8.5c-5.7,0.5-11.3,1.6-16.7,3.4c-5.4,1.8-10.6,4.1-15.5,7.1c-4.9,3-9.4,6.5-13.5,10.5
			c-4.1,4-7.7,8.5-10.8,13.4c-0.8,1.2-1.5,2.5-2.2,3.7c-0.4,0.6-0.7,1.3-1,1.9l-1,1.9c-0.6,1.3-1.2,2.6-1.8,4l-0.8,2l-0.4,1l-0.4,1
			c-1.9,5.5-3.2,11.1-3.9,16.9C5,81.1,5,86.9,5.7,92.7c2.1,17.6,10.3,33.9,23.1,46.1c0.5,0.5,1.1,1,1.6,1.5s1.1,1,1.6,1.5l1.7,1.4
			l0.8,0.7l0.9,0.7l1.8,1.3l1.8,1.3c1.2,0.9,2.5,1.6,3.7,2.4c2.5,1.5,5.2,2.9,7.9,4.1c1.3,0.6,2.7,1.1,4.1,1.7
			c0.7,0.3,1.4,0.5,2.1,0.7s1.4,0.5,2.1,0.7c23.2,7.3,48.4,3.3,68.2-10.6c-19.7,14.7-45.2,19.3-68.8,12.6c-0.7-0.2-1.5-0.4-2.2-0.6
			l-2.2-0.7c-1.4-0.5-2.9-1-4.3-1.6c-2.8-1.2-5.6-2.5-8.3-3.9c-1.3-0.8-2.7-1.5-3.9-2.3l-1.9-1.2l-1.9-1.3l-0.9-0.7l-0.9-0.7
			l-1.8-1.4c-0.6-0.5-1.2-1-1.8-1.5s-1.2-1-1.7-1.5C12.7,128.7,3.7,111.8,0.9,93.3C0,87.2-0.2,81,0.2,74.8C0.7,68.6,2,62.5,3.8,56.5
			l0.3-1.1l0.4-1.1l0.8-2.2c0.6-1.5,1.2-2.9,1.8-4.3l1-2.1c0.3-0.7,0.7-1.4,1.1-2.1c0.8-1.4,1.4-2.8,2.3-4.1
			c3.2-5.4,7.1-10.4,11.4-14.9c4.4-4.5,9.2-8.5,14.5-11.9c5.3-3.4,11-6.2,16.9-8.4c6-2.1,12.1-3.6,18.4-4.3L73.6,8.5z"/>
		<path class="st1" d="M87.4,10.7l54.3,121.9h-30.2c0,0-21.3-24.3-52.8,0H29.6c0,0,19.1-43.6,72.3-32.2L87.4,66.3l-9,21.7
			c-10.5,0.8-20.7,3.9-29.8,9.2L87.4,10.7z"/>
		<path class="st1" d="M149,32.4h18.7v51h32.6v16.4H149V32.4z"/>
		<path class="st1" d="M215.1,48.8h-20.2V32.4H254v16.4h-20.2v51h-18.7V48.8z"/>
		<path class="st1" d="M262.6,32.4h18.8v67.4h-18.8V32.4z"/>
		<path class="st1" d="M293.7,32.4h19.7l16.1,26.1l16.1-26.1h19.7v67.4h-18.6V61.1l-17.2,26.4h-0.4L312,61.3v38.5h-18.3V32.4z"/>
		<path class="st1" d="M400.5,31.9h18l28.7,67.9h-20l-4.9-12h-26l-4.8,12h-19.7L400.5,31.9z M416.9,73.2l-7.5-19.2l-7.6,19.2H416.9z
			"/>
		<path class="st1" d="M461.6,48.8h-20.2V32.4h59.1v16.4h-20.2v51h-18.7V48.8z"/>
		<path class="st1" d="M508.6,32.4h54.2v15.9h-35.7v10.2h32.3v14.7h-32.3v10.7h36.2v15.9h-54.7V32.4z"/>
		<path class="st0" d="M157.2,131.4h-8.8V109h7.4c4.3,0,7,2.3,7,5.7c0.1,1.8-0.9,3.6-2.5,4.5c2.9,0.9,4.6,3,4.6,5.8
			C164.8,128.8,161.9,131.4,157.2,131.4z M151.3,111.3v7h4.3c2.9,0,4.3-1.3,4.3-3.5s-1.5-3.5-4.3-3.5L151.3,111.3z M156.9,120.7
			h-5.6v8.4h5.6c3.2,0,5-1.6,5-4.2S160.1,120.7,156.9,120.7z"/>
		<path class="st0" d="M174.8,109h2.9v14.5c0,3.8,2.4,5.9,6,5.9s6-2.1,6-5.9V109h2.9v14.4c0,5.3-3.6,8.4-8.8,8.4s-8.8-3.1-8.8-8.4
			L174.8,109z"/>
		<path class="st0" d="M204.5,125.6c1.5,2.6,3.5,3.8,6,3.8s4.5-1.4,4.5-3.6c0-1.8-1.1-2.7-3.8-4.2l-2.5-1.3
			c-3.3-1.9-5.1-3.5-5.1-6.1c0-3.4,3.1-5.6,6.9-5.6c3-0.2,5.8,1.5,7.2,4.2l-2.3,1.2c-0.9-1.9-2.8-3-4.9-3c-2.3,0-4,1.2-4,3.1
			c0,1.6,1,2.4,3.6,3.9l2.5,1.3c3.7,2.1,5.3,3.8,5.3,6.5c0,3.6-3.1,6-7.4,6c-3.5,0.1-6.8-1.8-8.3-5L204.5,125.6z"/>
		<path class="st0" d="M228.6,109h2.9v22.5h-2.9V109z"/>
		<path class="st0" d="M261,109v22.7h-1.2l-13.7-16.8v16.5h-2.9v-22.7h1.2l13.7,16.8V109H261z"/>
		<path class="st0" d="M272.8,109H287v2.3h-11.4v6.9h8.7v2.3h-8.7v8.5h11.8v2.4h-14.6V109z"/>
		<path class="st0" d="M298.1,125.6c1.5,2.6,3.5,3.8,6,3.8s4.5-1.4,4.5-3.6c0-1.8-1.1-2.7-3.8-4.2l-2.5-1.3
			c-3.3-1.9-5.1-3.5-5.1-6.1c0-3.4,3.1-5.6,6.9-5.6c3-0.2,5.8,1.5,7.2,4.2l-2.2,1.2c-0.9-1.9-2.8-3-4.9-3c-2.3,0-4,1.2-4,3.1
			c0,1.6,1,2.4,3.6,3.9l2.5,1.3c3.7,2.1,5.3,3.8,5.3,6.5c0,3.6-3.1,6-7.4,6c-3.5,0.1-6.8-1.8-8.3-5L298.1,125.6z"/>
		<path class="st0" d="M322.8,125.6c1.5,2.6,3.5,3.8,6,3.8s4.5-1.4,4.5-3.6c0-1.8-1.1-2.7-3.8-4.2l-2.5-1.3
			c-3.3-1.9-5.1-3.5-5.1-6.1c0-3.4,3.1-5.6,6.9-5.6c3-0.2,5.8,1.5,7.2,4.2l-2.2,1.2c-0.9-1.9-2.8-3-4.9-3c-2.3,0-4,1.2-4,3.1
			c0,1.6,1,2.4,3.6,3.9l2.5,1.3c3.7,2.1,5.3,3.8,5.3,6.5c0,3.6-3.1,6-7.4,6c-3.5,0.1-6.8-1.8-8.3-5L322.8,125.6z"/>
		<path class="st0" d="M382.8,108.7v22.7h-2.9v-15.9L373,125h-1l-6.9-9.4v15.9h-2.9v-22.7h1.2l9,12.5l9.1-12.5L382.8,108.7z"/>
		<path class="st0" d="M407.9,126.9h-10.5l-1.9,4.6h-3l9.6-22.7h1.2l9.5,22.7h-3L407.9,126.9z M398.4,124.5h8.5l-4.3-10.7
			L398.4,124.5z"/>
		<path class="st0" d="M431.5,108.6c3.7-0.2,7.2,1.8,9,5l-2.3,1.2c-1.3-2.4-3.9-3.9-6.6-3.8c-4.7,0-8,3.7-8,9.2s3.3,9.2,8,9.2
			c2.7,0.1,5.3-1.4,6.6-3.8l2.3,1.2c-1.7,3.1-4.9,5-9,5c-6.3,0.1-11.1-4.8-11-11.6C420.5,113.4,425.2,108.5,431.5,108.6z"/>
		<path class="st0" d="M450.9,109h2.9v9.3h12V109h2.9v22.5h-2.9v-10.9h-12v10.9h-2.9V109z"/>
		<path class="st0" d="M480.4,109h2.9v22.5h-2.9V109z"/>
		<path class="st0" d="M512.8,109v22.7h-1.2l-13.7-16.8v16.5H495v-22.7h1.2l13.7,16.8V109H512.8z"/>
		<path class="st0" d="M524.5,109h14.3v2.3h-11.4v6.9h8.7v2.3h-8.7v8.5h11.8v2.4h-14.6V109z"/>
		<path class="st0" d="M549.9,125.6c1.5,2.6,3.5,3.8,6,3.8s4.5-1.4,4.5-3.6c0-1.8-1.1-2.7-3.8-4.2l-2.5-1.3
			c-3.3-1.9-5.1-3.5-5.1-6.1c0-3.4,3.1-5.6,6.9-5.6c3-0.2,5.8,1.5,7.2,4.2l-2.2,1.2c-0.9-1.9-2.8-3-4.9-3c-2.3,0-4,1.2-4,3.1
			c0,1.6,1,2.4,3.6,3.9l2.5,1.3c3.7,2.1,5.3,3.8,5.3,6.5c0,3.6-3.1,6-7.4,6c-3.5,0.1-6.8-1.8-8.3-5L549.9,125.6z"/>
	</g>
</g>
</svg>
